<?xml version="1.0" standalone="no"?>
<!DOCTYPE svg PUBLIC "-//W3C//DTD SVG 20010904//EN"
 "http://www.w3.org/TR/2001/REC-SVG-20010904/DTD/svg10.dtd">
<svg version="1.0" xmlns="http://www.w3.org/2000/svg"
 width="80.000000pt" height="80.000000pt" viewBox="0 0 80.000000 80.000000"
 preserveAspectRatio="xMidYMid meet">
<metadata>
Created by potrace 1.11, written by Peter Selinger 2001-2013
</metadata>
<g transform="translate(0.000000,80.000000) scale(0.100000,-0.100000)"
fill="#000000" stroke="none">
<path d="M0 400 l0 -400 400 0 400 0 0 400 0 400 -400 0 -400 0 0 -400z m518
248 c7 -7 12 -36 12 -65 0 -47 -3 -55 -24 -64 -32 -15 -77 -3 -83 21 -3 11
-14 20 -24 20 -16 0 -19 -8 -19 -45 l0 -45 63 0 c36 0 68 -5 75 -12 18 -18 17
-262 -2 -277 -9 -8 -52 -11 -127 -9 l-114 3 -3 68 -3 68 48 -3 c39 -2 50 -7
58 -25 5 -13 18 -23 27 -23 15 0 18 9 18 60 l0 59 -72 3 -73 3 -3 124 c-1 69
0 131 2 138 7 18 226 19 244 1z"/>
<path d="M290 525 l0 -105 64 0 c79 0 96 -17 96 -96 0 -78 -5 -84 -60 -84 -43
0 -49 3 -54 25 -4 16 -13 25 -27 25 -17 0 -20 -5 -17 -37 l3 -38 95 0 95 0 3
112 3 112 -73 3 -73 3 0 80 0 80 36 3 c31 3 40 -2 58 -27 28 -38 51 -31 51 15
l0 34 -100 0 -100 0 0 -105z"/>
</g>
</svg>
