<?xml version="1.0" standalone="no"?>
<!DOCTYPE svg PUBLIC "-//W3C//DTD SVG 1.1//EN" "http://www.w3.org/Graphics/SVG/1.1/DTD/svg11.dtd" >
<svg xmlns="http://www.w3.org/2000/svg" xmlns:xlink="http://www.w3.org/1999/xlink" version="1.1">
<metadata>
Created by FontForge 20170731 at Thu Oct 25 08:52:25 2018
 By Aleksey,,,
Copyright David Neustadt 2009
</metadata>
<defs>
<font id="monobono" horiz-adv-x="288" >
  <font-face 
    font-family="monobono"
    font-weight="400"
    font-stretch="normal"
    units-per-em="1024"
    panose-1="0 0 4 0 0 0 0 0 0 0"
    ascent="819"
    descent="-205"
    x-height="448"
    cap-height="448"
    bbox="0 -176 480 624"
    underline-thickness="51"
    underline-position="26"
    unicode-range="U+0020-007A"
  />
<missing-glyph horiz-adv-x="496" 
d="M410 50l-170 242l-171 -242h341zM50 69l170 243l-170 242v-485v0zM430 69v485l-171 -242l171 -243v0zM240 331l170 243h-341l171 -243v0zM0 0v624h480v-624h-480z" />
    <glyph glyph-name=".notdef" horiz-adv-x="496" 
d="M410 50l-170 242l-171 -242h341zM50 69l170 243l-170 242v-485v0zM430 69v485l-171 -242l171 -243v0zM240 331l170 243h-341l171 -243v0zM0 0v624h480v-624h-480z" />
    <glyph glyph-name="glyph1" horiz-adv-x="16" 
 />
    <glyph glyph-name="glyph2" horiz-adv-x="16" 
 />
    <glyph glyph-name="space" unicode=" " 
 />
    <glyph glyph-name="exclam" unicode="!" 
d="M128 32q6 0 11 4q5 5 5 12v16q0 6 -5 11t-11 5h-32v-32q0 -7 4 -12q5 -4 12 -4h16zM112 0q-14 0 -23 9t-9 23v48q0 6 4 11q5 5 12 5h48q13 0 22 -10q10 -9 10 -22v-32q0 -14 -10 -23q-9 -9 -22 -9h-32zM128 176q6 0 11 4q5 5 5 12v288q0 6 -5 11t-11 5h-32v-304
q0 -7 4 -12q5 -4 12 -4h16zM112 144q-14 0 -23 9t-9 23v320q0 6 4 11q5 5 12 5h48q13 0 22 -10q10 -9 10 -22v-304q0 -14 -10 -23q-9 -9 -22 -9h-32z" />
    <glyph glyph-name="comma" unicode="," 
d="M128 -32q6 0 11 5t5 11v80q0 6 -5 11t-11 5h-32v-96q0 -6 4 -11q5 -5 12 -5h16zM112 -64q-14 0 -23 10q-9 9 -9 22v112q0 6 4 11q5 5 12 5h48q13 0 22 -10q10 -9 10 -22v-96q0 -13 -10 -22q-9 -10 -22 -10h-32z" />
    <glyph glyph-name="period" unicode="." 
d="M128 32q6 0 11 4q5 5 5 12v16q0 6 -5 11t-11 5h-32v-32q0 -7 4 -12q5 -4 12 -4h16zM112 0q-14 0 -23 9t-9 23v48q0 6 4 11q5 5 12 5h48q13 0 22 -10q10 -9 10 -22v-32q0 -14 -10 -23q-9 -9 -22 -9h-32z" />
    <glyph glyph-name="zero" unicode="0" 
d="M144 80v112l-48 -48v-64h48zM80 64q-7 0 -12 4q-4 5 -4 12v80l96 96v-176q0 -7 -5 -12q-5 -4 -11 -4h-64zM96 272l48 48v48h-48v-96v0zM64 224v160q0 6 4 11q5 5 12 5h48q13 0 22 -10q10 -9 10 -22v-48l-96 -96v0zM192 32q6 0 11 4q5 5 5 12v368q0 6 -5 11t-11 5h-176
v-384q0 -7 4 -12q5 -4 12 -4h160zM32 0q-14 0 -23 9t-9 23v400q0 6 4 11q5 5 12 5h192q13 0 22 -10q10 -9 10 -22v-384q0 -14 -10 -23q-9 -9 -22 -9h-176z" />
    <glyph glyph-name="one" unicode="1" 
d="M192 32q6 0 11 4q5 5 5 12q0 6 -5 11t-11 5h-48v368h-128v-16q0 -7 4 -12q5 -4 12 -4h32q13 0 22 -10q10 -9 10 -22v-304h-80v-16q0 -7 4 -12q5 -4 12 -4h160zM32 0q-14 0 -23 9t-9 23v32q0 6 4 11q5 5 12 5h64v288h-48q-14 0 -23 9t-9 23v32q0 6 4 11q5 5 12 5h128
q13 0 22 -10q10 -9 10 -22v-336h32q13 0 22 -10q10 -9 10 -22v-16q0 -14 -10 -23q-9 -9 -22 -9h-176z" />
    <glyph glyph-name="two" unicode="2" 
d="M192 32q6 0 11 4q5 5 5 12v48q0 6 -5 11t-11 5h-32v-32q0 -7 -5 -12q-5 -4 -11 -4h-64q-7 0 -12 4q-4 5 -4 12v112q0 13 9 22q9 10 23 10h112v192q0 6 -5 11t-11 5h-176v-64q0 -7 4 -12q5 -4 12 -4h16q6 0 11 4q5 5 5 12v16q0 6 4 11q5 5 12 5h48q13 0 22 -10
q10 -9 10 -22v-96q0 -7 -5 -12q-5 -4 -11 -4h-128v-208q0 -7 4 -12q5 -4 12 -4h160zM32 0q-14 0 -23 9t-9 23v224q0 6 4 11q5 5 12 5h128v96h-48v-16q0 -14 -10 -23q-9 -9 -22 -9h-32q-14 0 -23 9t-9 23v80q0 6 4 11q5 5 12 5h192q13 0 22 -10q10 -9 10 -22v-192
q0 -14 -10 -23q-9 -9 -22 -9h-112v-112h48v32q0 6 4 11q5 5 12 5h48q13 0 22 -10q10 -9 10 -22v-64q0 -14 -10 -23q-9 -9 -22 -9h-176z" />
    <glyph glyph-name="three" unicode="3" 
d="M192 32q6 0 11 4q5 5 5 12v368q0 6 -5 11t-11 5h-176v-64q0 -7 4 -12q5 -4 12 -4h16q6 0 11 4q5 5 5 12v16q0 6 4 11q5 5 12 5h48q13 0 22 -10q10 -9 10 -22v-96q0 -7 -5 -12q-5 -4 -11 -4h-80v-16q0 -7 4 -12q5 -4 12 -4h80v-144q0 -7 -5 -12q-5 -4 -11 -4h-64
q-7 0 -12 4q-4 5 -4 12v16q0 6 -5 11t-11 5h-32v-64q0 -7 4 -12q5 -4 12 -4h160zM32 0q-14 0 -23 9t-9 23v80q0 6 4 11q5 5 12 5h48q13 0 22 -10q10 -9 10 -22v-16h48v112h-64q-14 0 -23 9t-9 23v32q0 6 4 11q5 5 12 5h80v96h-48v-16q0 -14 -10 -23q-9 -9 -22 -9h-32
q-14 0 -23 9t-9 23v80q0 6 4 11q5 5 12 5h192q13 0 22 -10q10 -9 10 -22v-384q0 -14 -10 -23q-9 -9 -22 -9h-176z" />
    <glyph glyph-name="four" unicode="4" 
d="M192 32q6 0 11 4q5 5 5 12v368q0 6 -5 11t-11 5h-32v-160q0 -7 -5 -12q-5 -4 -11 -4h-48q-14 0 -23 9t-9 23v128q0 6 -5 11t-11 5h-32v-192q0 -7 4 -12q5 -4 12 -4h128v-176q0 -7 4 -12q5 -4 12 -4h16zM176 0q-14 0 -23 9t-9 23v160h-112q-14 0 -23 9t-9 23v208q0 6 4 11
q5 5 12 5h48q13 0 22 -10q10 -9 10 -22v-144h48v160q0 6 4 11q5 5 12 5h48q13 0 22 -10q10 -9 10 -22v-384q0 -14 -10 -23q-9 -9 -22 -9h-32z" />
    <glyph glyph-name="five" unicode="5" 
d="M192 32q6 0 11 4q5 5 5 12v192q0 6 -5 11t-11 5h-112q-7 0 -12 4q-4 5 -4 12v112q0 6 4 11q5 5 12 5h112q6 0 11 4q5 5 5 12q0 6 -5 11t-11 5h-176v-192q0 -7 4 -12q5 -4 12 -4h96q13 0 22 -10q10 -9 10 -22v-112q0 -7 -5 -12q-5 -4 -11 -4h-64q-7 0 -12 4q-4 5 -4 12v16
q0 6 -5 11t-11 5h-32v-64q0 -7 4 -12q5 -4 12 -4h160zM32 0q-14 0 -23 9t-9 23v80q0 6 4 11q5 5 12 5h48q13 0 22 -10q10 -9 10 -22v-16h48v112h-112q-14 0 -23 9t-9 23v208q0 6 4 11q5 5 12 5h192q13 0 22 -10q10 -9 10 -22v-16q0 -14 -10 -23q-9 -9 -22 -9h-112v-96h112
q13 0 22 -10q10 -9 10 -22v-208q0 -14 -10 -23q-9 -9 -22 -9h-176z" />
    <glyph glyph-name="six" unicode="6" 
d="M144 80v112h-48v-112h48zM80 64q-7 0 -12 4q-4 5 -4 12v144h64q13 0 22 -10q10 -9 10 -22v-112q0 -7 -5 -12q-5 -4 -11 -4h-64zM192 32q6 0 11 4q5 5 5 12v192q0 6 -5 11t-11 5h-112q-7 0 -12 4q-4 5 -4 12v112q0 6 4 11q5 5 12 5h48q13 0 22 -10q10 -9 10 -22
q0 -7 4 -12q5 -4 12 -4h16q6 0 11 4q5 5 5 12v48q0 6 -5 11t-11 5h-176v-384q0 -7 4 -12q5 -4 12 -4h160zM32 0q-14 0 -23 9t-9 23v400q0 6 4 11q5 5 12 5h192q13 0 22 -10q10 -9 10 -22v-64q0 -14 -10 -23q-9 -9 -22 -9h-32q-14 0 -23 9t-9 23v16h-48v-96h112q13 0 22 -10
q10 -9 10 -22v-208q0 -14 -10 -23q-9 -9 -22 -9h-176z" />
    <glyph glyph-name="seven" unicode="7" 
d="M96 32q6 0 11 4q5 5 5 12v48l96 192v128q0 6 -5 11t-11 5h-176v-64q0 -7 4 -12q5 -4 12 -4h16q6 0 11 4q5 5 5 12v16q0 6 4 11q5 5 12 5h48q13 0 22 -10q10 -9 10 -22v-64l-96 -192v-64q0 -7 4 -12q5 -4 12 -4h16zM80 0q-14 0 -23 9t-9 23v80l96 192v64h-48v-16
q0 -14 -10 -23q-9 -9 -22 -9h-32q-14 0 -23 9t-9 23v80q0 6 4 11q5 5 12 5h192q13 0 22 -10q10 -9 10 -22v-128l-96 -192v-64q0 -14 -10 -23q-9 -9 -22 -9h-32z" />
    <glyph glyph-name="eight" unicode="8" 
d="M144 80v96h-48v-96h48zM80 64q-7 0 -12 4q-4 5 -4 12v128h96v-128q0 -7 -5 -12q-5 -4 -11 -4h-64zM144 256v112h-48v-112h48zM80 240q-7 0 -12 4q-4 5 -4 12v128q0 6 4 11q5 5 12 5h48q13 0 22 -10q10 -9 10 -22v-112q0 -7 -5 -12q-5 -4 -11 -4h-64zM192 32q6 0 11 4
q5 5 5 12v368q0 6 -5 11t-11 5h-176v-384q0 -7 4 -12q5 -4 12 -4h160zM32 0q-14 0 -23 9t-9 23v400q0 6 4 11q5 5 12 5h192q13 0 22 -10q10 -9 10 -22v-384q0 -14 -10 -23q-9 -9 -22 -9h-176z" />
    <glyph glyph-name="nine" unicode="9" 
d="M144 256v112h-48v-112h48zM80 240q-7 0 -12 4q-4 5 -4 12v128q0 6 4 11q5 5 12 5h48q13 0 22 -10q10 -9 10 -22v-112q0 -7 -5 -12q-5 -4 -11 -4h-64zM192 32q6 0 11 4q5 5 5 12v368q0 6 -5 11t-11 5h-176v-208q0 -7 4 -12q5 -4 12 -4h128v-128q0 -7 -5 -12q-5 -4 -11 -4
h-64q-7 0 -12 4q-4 5 -4 12v16q0 6 -5 11t-11 5h-32v-64q0 -7 4 -12q5 -4 12 -4h160zM32 0q-14 0 -23 9t-9 23v80q0 6 4 11q5 5 12 5h48q13 0 22 -10q10 -9 10 -22v-16h48v96h-112q-14 0 -23 9t-9 23v224q0 6 4 11q5 5 12 5h192q13 0 22 -10q10 -9 10 -22v-384
q0 -14 -10 -23q-9 -9 -22 -9h-176z" />
    <glyph glyph-name="question" unicode="?" 
d="M128 32q6 0 11 4q5 5 5 12v16q0 6 -5 11t-11 5h-32v-32q0 -7 4 -12q5 -4 12 -4h16zM112 0q-14 0 -23 9t-9 23v48q0 6 4 11q5 5 12 5h48q13 0 22 -10q10 -9 10 -22v-32q0 -14 -10 -23q-9 -9 -22 -9h-32zM128 176q6 0 11 4q5 5 5 12v64q0 13 9 22q9 10 23 10h32v192
q0 6 -5 11t-11 5h-176v-64q0 -7 4 -12q5 -4 12 -4h16q6 0 11 4q5 5 5 12v16q0 6 4 11q5 5 12 5h48q13 0 22 -10q10 -9 10 -22v-96q0 -7 -5 -12q-5 -4 -11 -4h-48v-128q0 -7 4 -12q5 -4 12 -4h16zM112 144q-14 0 -23 9t-9 23v144q0 6 4 11q5 5 12 5h48v96h-48v-16
q0 -14 -10 -23q-9 -9 -22 -9h-32q-14 0 -23 9t-9 23v80q0 6 4 11q5 5 12 5h192q13 0 22 -10q10 -9 10 -22v-192q0 -14 -10 -23q-9 -9 -22 -9h-32v-80q0 -14 -10 -23q-9 -9 -22 -9h-32z" />
    <glyph glyph-name="A" unicode="A" 
d="M144 80v96h-48v-96h48zM80 64q-7 0 -12 4q-4 5 -4 12v112q0 6 4 11q5 5 12 5h80v-144h-80zM192 32q6 0 11 4q5 5 5 12v368q0 6 -5 11t-11 5h-176v-64q0 -7 4 -12q5 -4 12 -4h16q6 0 11 4q5 5 5 12v16q0 6 4 11q5 5 12 5h48q13 0 22 -10q10 -9 10 -22v-112q0 -7 -5 -12
q-5 -4 -11 -4h-128v-192q0 -7 4 -12q5 -4 12 -4h160zM32 0q-14 0 -23 9t-9 23v208q0 6 4 11q5 5 12 5h128v112h-48v-16q0 -14 -10 -23q-9 -9 -22 -9h-32q-14 0 -23 9t-9 23v80q0 6 4 11q5 5 12 5h192q13 0 22 -10q10 -9 10 -22v-384q0 -14 -10 -23q-9 -9 -22 -9h-176z" />
    <glyph glyph-name="B" unicode="B" 
d="M144 80v288h-48v-288h48zM80 64q-7 0 -12 4q-4 5 -4 12v320h64q13 0 22 -10q10 -9 10 -22v-288q0 -7 -5 -12q-5 -4 -11 -4h-64zM192 32q6 0 11 4q5 5 5 12v368q0 6 -5 11t-11 5h-112q-7 0 -12 4q-4 5 -4 12v144q0 6 -5 11t-11 5h-32v-560q0 -7 4 -12q5 -4 12 -4h160z
M32 0q-14 0 -23 9t-9 23v576q0 6 4 11q5 5 12 5h48q13 0 22 -10q10 -9 10 -22v-144h112q13 0 22 -10q10 -9 10 -22v-384q0 -14 -10 -23q-9 -9 -22 -9h-176z" />
    <glyph glyph-name="C" unicode="C" 
d="M192 32q6 0 11 4q5 5 5 12v112q0 6 -5 11t-11 5h-32v-96q0 -7 -5 -12q-5 -4 -11 -4h-64q-7 0 -12 4q-4 5 -4 12v304q0 6 4 11q5 5 12 5h48q13 0 22 -10q10 -9 10 -22v-64q0 -7 4 -12q5 -4 12 -4h16q6 0 11 4q5 5 5 12v112q0 6 -5 11t-11 5h-176v-384q0 -7 4 -12
q5 -4 12 -4h160zM32 0q-14 0 -23 9t-9 23v400q0 6 4 11q5 5 12 5h192q13 0 22 -10q10 -9 10 -22v-128q0 -14 -10 -23q-9 -9 -22 -9h-32q-14 0 -23 9t-9 23v80h-48v-288h48v96q0 6 4 11q5 5 12 5h48q13 0 22 -10q10 -9 10 -22v-128q0 -14 -10 -23q-9 -9 -22 -9h-176z" />
    <glyph glyph-name="D" unicode="D" 
d="M144 80v288h-48v-288h48zM80 64q-7 0 -12 4q-4 5 -4 12v304q0 6 4 11q5 5 12 5h80v-320q0 -7 -5 -12q-5 -4 -11 -4h-64zM192 32q6 0 11 4q5 5 5 12v544q0 6 -5 11t-11 5h-32v-160q0 -7 -5 -12q-5 -4 -11 -4h-128v-384q0 -7 4 -12q5 -4 12 -4h160zM32 0q-14 0 -23 9t-9 23
v400q0 6 4 11q5 5 12 5h128v160q0 6 4 11q5 5 12 5h48q13 0 22 -10q10 -9 10 -22v-560q0 -14 -10 -23q-9 -9 -22 -9h-176z" />
    <glyph glyph-name="E" unicode="E" 
d="M144 256v112h-48v-112h48zM64 240v144q0 6 4 11q5 5 12 5h48q13 0 22 -10q10 -9 10 -22v-112q0 -7 -5 -12q-5 -4 -11 -4h-80zM192 32q6 0 11 4q5 5 5 12v48q0 6 -5 11t-11 5h-32v-32q0 -7 -5 -12q-5 -4 -11 -4h-64q-7 0 -12 4q-4 5 -4 12v128h128q6 0 11 4q5 5 5 12v192
q0 6 -5 11t-11 5h-176v-384q0 -7 4 -12q5 -4 12 -4h160zM32 0q-14 0 -23 9t-9 23v400q0 6 4 11q5 5 12 5h192q13 0 22 -10q10 -9 10 -22v-208q0 -14 -10 -23q-9 -9 -22 -9h-112v-96h48v32q0 6 4 11q5 5 12 5h48q13 0 22 -10q10 -9 10 -22v-64q0 -14 -10 -23q-9 -9 -22 -9
h-176z" />
    <glyph glyph-name="F" unicode="F" 
d="M48 32q6 0 11 4q5 5 5 12v176h128q6 0 11 4q5 5 5 12q0 6 -5 11t-11 5h-112q-7 0 -12 4q-4 5 -4 12v112q0 6 4 11q5 5 12 5h48q13 0 22 -10q10 -9 10 -22q0 -7 4 -12q5 -4 12 -4h16q6 0 11 4q5 5 5 12v48q0 6 -5 11t-11 5h-176v-384q0 -7 4 -12q5 -4 12 -4h16zM32 0
q-14 0 -23 9t-9 23v400q0 6 4 11q5 5 12 5h192q13 0 22 -10q10 -9 10 -22v-64q0 -14 -10 -23q-9 -9 -22 -9h-32q-14 0 -23 9t-9 23v16h-48v-96h112q13 0 22 -10q10 -9 10 -22v-16q0 -14 -10 -23q-9 -9 -22 -9h-112v-160q0 -14 -10 -23q-9 -9 -22 -9h-32z" />
    <glyph glyph-name="G" unicode="G" 
d="M144 80v288h-48v-288h48zM80 64q-7 0 -12 4q-4 5 -4 12v304q0 6 4 11q5 5 12 5h48q13 0 22 -10q10 -9 10 -22v-288q0 -7 -5 -12q-5 -4 -11 -4h-64zM192 -144q6 0 11 5t5 11v544q0 6 -5 11t-11 5h-176v-384q0 -7 4 -12q5 -4 12 -4h128v-128q0 -6 -5 -11t-11 -5h-64
q-7 0 -12 5q-4 5 -4 11v16q0 7 -5 12q-5 4 -11 4h-32v-64q0 -6 4 -11q5 -5 12 -5h160zM32 -176q-14 0 -23 10q-9 9 -9 22v80q0 7 4 12q5 4 12 4h48q13 0 22 -9q10 -9 10 -23v-16h48v96h-112q-14 0 -23 9t-9 23v400q0 6 4 11q5 5 12 5h192q13 0 22 -10q10 -9 10 -22v-560
q0 -13 -10 -22q-9 -10 -22 -10h-176z" />
    <glyph glyph-name="H" unicode="H" 
d="M192 32q6 0 11 4q5 5 5 12v368q0 6 -5 11t-11 5h-32v-176h-96v160q0 6 -5 11t-11 5h-32v-384q0 -7 4 -12q5 -4 12 -4h16q6 0 11 4q5 5 5 12v176h96v-176q0 -7 4 -12q5 -4 12 -4h16zM32 0q-14 0 -23 9t-9 23v400q0 6 4 11q5 5 12 5h48q13 0 22 -10q10 -9 10 -22v-144h48
v160q0 6 4 11q5 5 12 5h48q13 0 22 -10q10 -9 10 -22v-384q0 -14 -10 -23q-9 -9 -22 -9h-32q-14 0 -23 9t-9 23v160h-48v-160q0 -14 -10 -23q-9 -9 -22 -9h-32z" />
    <glyph glyph-name="I" unicode="I" 
d="M192 32q6 0 11 4q5 5 5 12q0 6 -5 11t-11 5h-48v336h48q6 0 11 4q5 5 5 12q0 6 -5 11t-11 5h-176v-16q0 -7 4 -12q5 -4 12 -4h64v-336h-80v-16q0 -7 4 -12q5 -4 12 -4h160zM32 0q-14 0 -23 9t-9 23v32q0 6 4 11q5 5 12 5h64v288h-48q-14 0 -23 9t-9 23v32q0 6 4 11
q5 5 12 5h192q13 0 22 -10q10 -9 10 -22v-16q0 -14 -10 -23q-9 -9 -22 -9h-32v-288h32q13 0 22 -10q10 -9 10 -22v-16q0 -14 -10 -23q-9 -9 -22 -9h-176z" />
    <glyph glyph-name="J" unicode="J" 
d="M192 32q6 0 11 4q5 5 5 12v368q0 6 -5 11t-11 5h-112v-16q0 -7 4 -12q5 -4 12 -4h64v-320q0 -7 -5 -12q-5 -4 -11 -4h-64q-7 0 -12 4q-4 5 -4 12v160q0 6 -5 11t-11 5h-32v-208q0 -7 4 -12q5 -4 12 -4h160zM32 0q-14 0 -23 9t-9 23v224q0 6 4 11q5 5 12 5h48q13 0 22 -10
q10 -9 10 -22v-160h48v288h-48q-14 0 -23 9t-9 23v32q0 6 4 11q5 5 12 5h128q13 0 22 -10q10 -9 10 -22v-384q0 -14 -10 -23q-9 -9 -22 -9h-176z" />
    <glyph glyph-name="K" unicode="K" 
d="M208 32v192q0 6 -5 11t-11 5h-48l16 16l48 96v64q0 6 -5 11t-11 5h-32v-64l-64 -128h-32v352q0 6 -5 11t-11 5h-32v-560q0 -7 4 -12q5 -4 12 -4h16q6 0 11 4q5 5 5 12v160h64q13 0 22 -10q10 -9 10 -22v-144h48zM32 0q-14 0 -23 9t-9 23v576q0 6 4 11q5 5 12 5h48
q13 0 22 -10q10 -9 10 -22v-320l48 96v64q0 6 4 11q5 5 12 5h48q13 0 22 -10q10 -9 10 -22v-64l-48 -96h16q13 0 22 -10q10 -9 10 -22v-192q0 -14 -10 -23q-9 -9 -22 -9h-32q-14 0 -23 9t-9 23v144h-48v-144q0 -14 -10 -23q-9 -9 -22 -9h-32z" />
    <glyph glyph-name="L" unicode="L" 
d="M192 32q6 0 11 4q5 5 5 12v192q0 6 -5 11t-11 5h-32v-176q0 -7 -5 -12q-5 -4 -11 -4h-64q-7 0 -12 4q-4 5 -4 12v336q0 6 -5 11t-11 5h-32v-384q0 -7 4 -12q5 -4 12 -4h160zM32 0q-14 0 -23 9t-9 23v400q0 6 4 11q5 5 12 5h48q13 0 22 -10q10 -9 10 -22v-336h48v176
q0 6 4 11q5 5 12 5h48q13 0 22 -10q10 -9 10 -22v-208q0 -14 -10 -23q-9 -9 -22 -9h-176z" />
    <glyph glyph-name="M" unicode="M" 
d="M192 32q6 0 11 4q5 5 5 12v384h-56l-40 -80l-40 80h-56v-384q0 -7 4 -12q5 -4 12 -4h16q6 0 11 4q5 5 5 12v304l48 -96l48 96v-304q0 -7 4 -12q5 -4 12 -4h16zM32 0q-14 0 -23 9t-9 23v400q0 6 4 11q5 5 12 5h80l24 -48l24 48h64q13 0 22 -10q10 -9 10 -22v-384
q0 -14 -10 -23q-9 -9 -22 -9h-32q-14 0 -23 9t-9 23v224l-16 -32h-16l-16 32v-224q0 -14 -10 -23q-9 -9 -22 -9h-32z" />
    <glyph glyph-name="N" unicode="N" 
d="M192 32q6 0 11 4q5 5 5 12v368q0 6 -5 11t-11 5h-32v-176l-88 176h-56v-384q0 -7 4 -12q5 -4 12 -4h16q6 0 11 4q5 5 5 12v304l96 -192v-112q0 -7 4 -12q5 -4 12 -4h16zM32 0q-14 0 -23 9t-9 23v400q0 6 4 11q5 5 12 5h80l48 -96v80q0 6 4 11q5 5 12 5h48q13 0 22 -10
q10 -9 10 -22v-384q0 -14 -10 -23q-9 -9 -22 -9h-32q-14 0 -23 9t-9 23v128l-48 96v-224q0 -14 -10 -23q-9 -9 -22 -9h-32z" />
    <glyph glyph-name="O" unicode="O" 
d="M144 80v288h-48v-288h48zM80 64q-7 0 -12 4q-4 5 -4 12v304q0 6 4 11q5 5 12 5h48q13 0 22 -10q10 -9 10 -22v-288q0 -7 -5 -12q-5 -4 -11 -4h-64zM192 32q6 0 11 4q5 5 5 12v368q0 6 -5 11t-11 5h-176v-384q0 -7 4 -12q5 -4 12 -4h160zM32 0q-14 0 -23 9t-9 23v400
q0 6 4 11q5 5 12 5h192q13 0 22 -10q10 -9 10 -22v-384q0 -14 -10 -23q-9 -9 -22 -9h-176z" />
    <glyph glyph-name="P" unicode="P" 
d="M144 80v288h-48v-288h48zM64 64v320q0 6 4 11q5 5 12 5h48q13 0 22 -10q10 -9 10 -22v-288q0 -7 -5 -12q-5 -4 -11 -4h-80zM48 -144q6 0 11 5t5 11v160h128q6 0 11 4q5 5 5 12v368q0 6 -5 11t-11 5h-176v-560q0 -6 4 -11q5 -5 12 -5h16zM32 -176q-14 0 -23 10q-9 9 -9 22
v576q0 6 4 11q5 5 12 5h192q13 0 22 -10q10 -9 10 -22v-384q0 -14 -10 -23q-9 -9 -22 -9h-112v-144q0 -13 -10 -22q-9 -10 -22 -10h-32z" />
    <glyph glyph-name="Q" unicode="Q" 
d="M144 80v288h-48v-288h48zM80 64q-7 0 -12 4q-4 5 -4 12v304q0 6 4 11q5 5 12 5h48q13 0 22 -10q10 -9 10 -22v-288q0 -7 -5 -12q-5 -4 -11 -4h-64zM192 -32l-32 64h32q6 0 11 4q5 5 5 12v368q0 6 -5 11t-11 5h-176v-384q0 -7 4 -12q5 -4 12 -4h80l32 -64h48zM144 -64
l-32 64h-80q-14 0 -23 9t-9 23v400q0 6 4 11q5 5 12 5h192q13 0 22 -10q10 -9 10 -22v-384q0 -14 -10 -23q-9 -9 -22 -9l32 -64h-96z" />
    <glyph glyph-name="R" unicode="R" 
d="M144 272v96h-48v-96h48zM64 256v128q0 6 4 11q5 5 12 5h48q13 0 22 -10q10 -9 10 -22v-96q0 -7 -5 -12q-5 -4 -11 -4h-80zM208 32v48l-64 128l-16 16h64q6 0 11 4q5 5 5 12v176q0 6 -5 11t-11 5h-176v-384q0 -7 4 -12q5 -4 12 -4h16q6 0 11 4q5 5 5 12v176h16l80 -160
v-32h48zM32 0q-14 0 -23 9t-9 23v400q0 6 4 11q5 5 12 5h192q13 0 22 -10q10 -9 10 -22v-192q0 -14 -10 -23q-9 -9 -22 -9h-24l56 -112v-48q0 -14 -10 -23q-9 -9 -22 -9h-32q-14 0 -23 9t-9 23v32l-48 96v-128q0 -14 -10 -23q-9 -9 -22 -9h-32z" />
    <glyph glyph-name="S" unicode="S" 
d="M192 32q6 0 11 4q5 5 5 12v192q0 6 -5 11t-11 5h-112q-7 0 -12 4q-4 5 -4 12v112q0 6 4 11q5 5 12 5h48q13 0 22 -10q10 -9 10 -22q0 -7 4 -12q5 -4 12 -4h16q6 0 11 4q5 5 5 12v48q0 6 -5 11t-11 5h-176v-192q0 -7 4 -12q5 -4 12 -4h96q13 0 22 -10q10 -9 10 -22v-112
q0 -7 -5 -12q-5 -4 -11 -4h-64q-7 0 -12 4q-4 5 -4 12v16q0 6 -5 11t-11 5h-32v-64q0 -7 4 -12q5 -4 12 -4h160zM32 0q-14 0 -23 9t-9 23v80q0 6 4 11q5 5 12 5h48q13 0 22 -10q10 -9 10 -22v-16h48v112h-112q-14 0 -23 9t-9 23v208q0 6 4 11q5 5 12 5h192q13 0 22 -10
q10 -9 10 -22v-64q0 -14 -10 -23q-9 -9 -22 -9h-32q-14 0 -23 9t-9 23v16h-48v-96h112q13 0 22 -10q10 -9 10 -22v-208q0 -14 -10 -23q-9 -9 -22 -9h-176z" />
    <glyph glyph-name="T" unicode="T" 
d="M192 32q6 0 11 4q5 5 5 12v192q0 6 -5 11t-11 5h-32v-176q0 -7 -5 -12q-5 -4 -11 -4h-64q-7 0 -12 4q-4 5 -4 12v320h128q6 0 11 4q5 5 5 12q0 6 -5 11t-11 5h-128v128q0 6 -5 11t-11 5h-32v-528q0 -7 4 -12q5 -4 12 -4h160zM32 0q-14 0 -23 9t-9 23v544q0 6 4 11
q5 5 12 5h48q13 0 22 -10q10 -9 10 -22v-112h112q13 0 22 -10q10 -9 10 -22v-16q0 -14 -10 -23q-9 -9 -22 -9h-112v-288h48v176q0 6 4 11q5 5 12 5h48q13 0 22 -10q10 -9 10 -22v-208q0 -14 -10 -23q-9 -9 -22 -9h-176z" />
    <glyph glyph-name="U" unicode="U" 
d="M192 32q6 0 11 4q5 5 5 12v368q0 6 -5 11t-11 5h-32v-352q0 -7 -5 -12q-5 -4 -11 -4h-64q-7 0 -12 4q-4 5 -4 12v336q0 6 -5 11t-11 5h-32v-384q0 -7 4 -12q5 -4 12 -4h160zM32 0q-14 0 -23 9t-9 23v400q0 6 4 11q5 5 12 5h48q13 0 22 -10q10 -9 10 -22v-336h48v352
q0 6 4 11q5 5 12 5h48q13 0 22 -10q10 -9 10 -22v-384q0 -14 -10 -23q-9 -9 -22 -9h-176z" />
    <glyph glyph-name="V" unicode="V" 
d="M112 32l96 192v192q0 6 -5 11t-11 5h-32v-192l-48 -96l-48 96v176q0 6 -5 11t-11 5h-32v-208l96 -192v0zM112 0l-112 224v208q0 6 4 11q5 5 12 5h48q13 0 22 -10q10 -9 10 -22v-176l24 -48l24 48v192q0 6 4 11q5 5 12 5h48q13 0 22 -10q10 -9 10 -22v-192l-112 -224h-16z
" />
    <glyph glyph-name="W" unicode="W" 
d="M192 32q6 0 11 4q5 5 5 12v368q0 6 -5 11t-11 5h-32v-336l-48 96l-48 -96v320q0 6 -5 11t-11 5h-32v-384q0 -7 4 -12q5 -4 12 -4h48l32 64l32 -64h48zM32 0q-14 0 -23 9t-9 23v400q0 6 4 11q5 5 12 5h48q13 0 22 -10q10 -9 10 -22v-224l16 32h16l16 -32v240q0 6 4 11
q5 5 12 5h48q13 0 22 -10q10 -9 10 -22v-384q0 -14 -10 -23q-9 -9 -22 -9h-64l-24 48l-24 -48h-64z" />
    <glyph glyph-name="X" unicode="X" 
d="M208 32v96l-48 96l48 96v96q0 6 -5 11t-11 5h-32v-96l-48 -96l-48 96v80q0 6 -5 11t-11 5h-32v-112l48 -96l-48 -96v-80q0 -7 4 -12q5 -4 12 -4h16q6 0 11 4q5 5 5 12v64l48 96l48 -96v-80h48zM32 0q-14 0 -23 9t-9 23v96l48 96l-48 96v112q0 6 4 11q5 5 12 5h48
q13 0 22 -10q10 -9 10 -22v-80l24 -48l24 48v96q0 6 4 11q5 5 12 5h48q13 0 22 -10q10 -9 10 -22v-96l-48 -96l48 -96v-96q0 -14 -10 -23q-9 -9 -22 -9h-32q-14 0 -23 9t-9 23v80l-24 48l-24 -48v-80q0 -14 -10 -23q-9 -9 -22 -9h-32z" />
    <glyph glyph-name="Y" unicode="Y" 
d="M192 -144q6 0 11 5t5 11v544q0 6 -5 11t-11 5h-32v-352q0 -7 -5 -12q-5 -4 -11 -4h-64q-7 0 -12 4q-4 5 -4 12v336q0 6 -5 11t-11 5h-32v-384q0 -7 4 -12q5 -4 12 -4h128v-128q0 -6 -5 -11t-11 -5h-64q-7 0 -12 5q-4 5 -4 11v16q0 7 -5 12q-5 4 -11 4h-32v-64q0 -6 4 -11
q5 -5 12 -5h160zM32 -176q-14 0 -23 10q-9 9 -9 22v80q0 7 4 12q5 4 12 4h48q13 0 22 -9q10 -9 10 -23v-16h48v96h-112q-14 0 -23 9t-9 23v400q0 6 4 11q5 5 12 5h48q13 0 22 -10q10 -9 10 -22v-336h48v352q0 6 4 11q5 5 12 5h48q13 0 22 -10q10 -9 10 -22v-560
q0 -13 -10 -22q-9 -10 -22 -10h-176z" />
    <glyph glyph-name="Z" unicode="Z" 
d="M192 32q6 0 11 4q5 5 5 12v48q0 6 -5 11t-11 5h-32v-32q0 -7 -5 -12q-5 -4 -11 -4h-80l144 288v64q0 6 -5 11t-11 5h-176v-64q0 -7 4 -12q5 -4 12 -4h16q6 0 11 4q5 5 5 12v16q0 6 4 11q5 5 12 5h80v-32l-144 -288v-32q0 -7 4 -12q5 -4 12 -4h160zM32 0q-14 0 -23 9
t-9 23v48l144 288h-48v-16q0 -14 -10 -23q-9 -9 -22 -9h-32q-14 0 -23 9t-9 23v80q0 6 4 11q5 5 12 5h192q13 0 22 -10q10 -9 10 -22v-64l-136 -272h40v32q0 6 4 11q5 5 12 5h48q13 0 22 -10q10 -9 10 -22v-64q0 -14 -10 -23q-9 -9 -22 -9h-176z" />
    <glyph glyph-name="a" unicode="a" 
d="M144 80v96h-48v-96h48zM80 64q-7 0 -12 4q-4 5 -4 12v112q0 6 4 11q5 5 12 5h80v-144h-80zM192 32q6 0 11 4q5 5 5 12v368q0 6 -5 11t-11 5h-176v-64q0 -7 4 -12q5 -4 12 -4h16q6 0 11 4q5 5 5 12v16q0 6 4 11q5 5 12 5h48q13 0 22 -10q10 -9 10 -22v-112q0 -7 -5 -12
q-5 -4 -11 -4h-128v-192q0 -7 4 -12q5 -4 12 -4h160zM32 0q-14 0 -23 9t-9 23v208q0 6 4 11q5 5 12 5h128v112h-48v-16q0 -14 -10 -23q-9 -9 -22 -9h-32q-14 0 -23 9t-9 23v80q0 6 4 11q5 5 12 5h192q13 0 22 -10q10 -9 10 -22v-384q0 -14 -10 -23q-9 -9 -22 -9h-176z" />
    <glyph glyph-name="b" unicode="b" 
d="M144 80v288h-48v-288h48zM80 64q-7 0 -12 4q-4 5 -4 12v320h64q13 0 22 -10q10 -9 10 -22v-288q0 -7 -5 -12q-5 -4 -11 -4h-64zM192 32q6 0 11 4q5 5 5 12v368q0 6 -5 11t-11 5h-112q-7 0 -12 4q-4 5 -4 12v144q0 6 -5 11t-11 5h-32v-560q0 -7 4 -12q5 -4 12 -4h160z
M32 0q-14 0 -23 9t-9 23v576q0 6 4 11q5 5 12 5h48q13 0 22 -10q10 -9 10 -22v-144h112q13 0 22 -10q10 -9 10 -22v-384q0 -14 -10 -23q-9 -9 -22 -9h-176z" />
    <glyph glyph-name="c" unicode="c" 
d="M192 32q6 0 11 4q5 5 5 12v112q0 6 -5 11t-11 5h-32v-96q0 -7 -5 -12q-5 -4 -11 -4h-64q-7 0 -12 4q-4 5 -4 12v304q0 6 4 11q5 5 12 5h48q13 0 22 -10q10 -9 10 -22v-64q0 -7 4 -12q5 -4 12 -4h16q6 0 11 4q5 5 5 12v112q0 6 -5 11t-11 5h-176v-384q0 -7 4 -12
q5 -4 12 -4h160zM32 0q-14 0 -23 9t-9 23v400q0 6 4 11q5 5 12 5h192q13 0 22 -10q10 -9 10 -22v-128q0 -14 -10 -23q-9 -9 -22 -9h-32q-14 0 -23 9t-9 23v80h-48v-288h48v96q0 6 4 11q5 5 12 5h48q13 0 22 -10q10 -9 10 -22v-128q0 -14 -10 -23q-9 -9 -22 -9h-176z" />
    <glyph glyph-name="d" unicode="d" 
d="M144 80v288h-48v-288h48zM80 64q-7 0 -12 4q-4 5 -4 12v304q0 6 4 11q5 5 12 5h80v-320q0 -7 -5 -12q-5 -4 -11 -4h-64zM192 32q6 0 11 4q5 5 5 12v544q0 6 -5 11t-11 5h-32v-160q0 -7 -5 -12q-5 -4 -11 -4h-128v-384q0 -7 4 -12q5 -4 12 -4h160zM32 0q-14 0 -23 9t-9 23
v400q0 6 4 11q5 5 12 5h128v160q0 6 4 11q5 5 12 5h48q13 0 22 -10q10 -9 10 -22v-560q0 -14 -10 -23q-9 -9 -22 -9h-176z" />
    <glyph glyph-name="e" unicode="e" 
d="M144 256v112h-48v-112h48zM64 240v144q0 6 4 11q5 5 12 5h48q13 0 22 -10q10 -9 10 -22v-112q0 -7 -5 -12q-5 -4 -11 -4h-80zM192 32q6 0 11 4q5 5 5 12v48q0 6 -5 11t-11 5h-32v-32q0 -7 -5 -12q-5 -4 -11 -4h-64q-7 0 -12 4q-4 5 -4 12v128h128q6 0 11 4q5 5 5 12v192
q0 6 -5 11t-11 5h-176v-384q0 -7 4 -12q5 -4 12 -4h160zM32 0q-14 0 -23 9t-9 23v400q0 6 4 11q5 5 12 5h192q13 0 22 -10q10 -9 10 -22v-208q0 -14 -10 -23q-9 -9 -22 -9h-112v-96h48v32q0 6 4 11q5 5 12 5h48q13 0 22 -10q10 -9 10 -22v-64q0 -14 -10 -23q-9 -9 -22 -9
h-176z" />
    <glyph glyph-name="f" unicode="f" 
d="M48 32q6 0 11 4q5 5 5 12v176h128q6 0 11 4q5 5 5 12q0 6 -5 11t-11 5h-112q-7 0 -12 4q-4 5 -4 12v112q0 6 4 11q5 5 12 5h48q13 0 22 -10q10 -9 10 -22q0 -7 4 -12q5 -4 12 -4h16q6 0 11 4q5 5 5 12v48q0 6 -5 11t-11 5h-176v-384q0 -7 4 -12q5 -4 12 -4h16zM32 0
q-14 0 -23 9t-9 23v400q0 6 4 11q5 5 12 5h192q13 0 22 -10q10 -9 10 -22v-64q0 -14 -10 -23q-9 -9 -22 -9h-32q-14 0 -23 9t-9 23v16h-48v-96h112q13 0 22 -10q10 -9 10 -22v-16q0 -14 -10 -23q-9 -9 -22 -9h-112v-160q0 -14 -10 -23q-9 -9 -22 -9h-32z" />
    <glyph glyph-name="g" unicode="g" 
d="M144 80v288h-48v-288h48zM80 64q-7 0 -12 4q-4 5 -4 12v304q0 6 4 11q5 5 12 5h48q13 0 22 -10q10 -9 10 -22v-288q0 -7 -5 -12q-5 -4 -11 -4h-64zM192 -144q6 0 11 5t5 11v544q0 6 -5 11t-11 5h-176v-384q0 -7 4 -12q5 -4 12 -4h128v-128q0 -6 -5 -11t-11 -5h-64
q-7 0 -12 5q-4 5 -4 11v16q0 7 -5 12q-5 4 -11 4h-32v-64q0 -6 4 -11q5 -5 12 -5h160zM32 -176q-14 0 -23 10q-9 9 -9 22v80q0 7 4 12q5 4 12 4h48q13 0 22 -9q10 -9 10 -23v-16h48v96h-112q-14 0 -23 9t-9 23v400q0 6 4 11q5 5 12 5h192q13 0 22 -10q10 -9 10 -22v-560
q0 -13 -10 -22q-9 -10 -22 -10h-176z" />
    <glyph glyph-name="h" unicode="h" 
d="M192 32q6 0 11 4q5 5 5 12v368q0 6 -5 11t-11 5h-32v-176h-96v160q0 6 -5 11t-11 5h-32v-384q0 -7 4 -12q5 -4 12 -4h16q6 0 11 4q5 5 5 12v176h96v-176q0 -7 4 -12q5 -4 12 -4h16zM32 0q-14 0 -23 9t-9 23v400q0 6 4 11q5 5 12 5h48q13 0 22 -10q10 -9 10 -22v-144h48
v160q0 6 4 11q5 5 12 5h48q13 0 22 -10q10 -9 10 -22v-384q0 -14 -10 -23q-9 -9 -22 -9h-32q-14 0 -23 9t-9 23v160h-48v-160q0 -14 -10 -23q-9 -9 -22 -9h-32z" />
    <glyph glyph-name="i" unicode="i" 
d="M192 32q6 0 11 4q5 5 5 12q0 6 -5 11t-11 5h-48v336h48q6 0 11 4q5 5 5 12q0 6 -5 11t-11 5h-176v-16q0 -7 4 -12q5 -4 12 -4h64v-336h-80v-16q0 -7 4 -12q5 -4 12 -4h160zM32 0q-14 0 -23 9t-9 23v32q0 6 4 11q5 5 12 5h64v288h-48q-14 0 -23 9t-9 23v32q0 6 4 11
q5 5 12 5h192q13 0 22 -10q10 -9 10 -22v-16q0 -14 -10 -23q-9 -9 -22 -9h-32v-288h32q13 0 22 -10q10 -9 10 -22v-16q0 -14 -10 -23q-9 -9 -22 -9h-176z" />
    <glyph glyph-name="j" unicode="j" 
d="M192 32q6 0 11 4q5 5 5 12v368q0 6 -5 11t-11 5h-112v-16q0 -7 4 -12q5 -4 12 -4h64v-320q0 -7 -5 -12q-5 -4 -11 -4h-64q-7 0 -12 4q-4 5 -4 12v160q0 6 -5 11t-11 5h-32v-208q0 -7 4 -12q5 -4 12 -4h160zM32 0q-14 0 -23 9t-9 23v224q0 6 4 11q5 5 12 5h48q13 0 22 -10
q10 -9 10 -22v-160h48v288h-48q-14 0 -23 9t-9 23v32q0 6 4 11q5 5 12 5h128q13 0 22 -10q10 -9 10 -22v-384q0 -14 -10 -23q-9 -9 -22 -9h-176z" />
    <glyph glyph-name="k" unicode="k" 
d="M208 32v192q0 6 -5 11t-11 5h-48l16 16l48 96v64q0 6 -5 11t-11 5h-32v-64l-64 -128h-32v352q0 6 -5 11t-11 5h-32v-560q0 -7 4 -12q5 -4 12 -4h16q6 0 11 4q5 5 5 12v160h64q13 0 22 -10q10 -9 10 -22v-144h48zM32 0q-14 0 -23 9t-9 23v576q0 6 4 11q5 5 12 5h48
q13 0 22 -10q10 -9 10 -22v-320l48 96v64q0 6 4 11q5 5 12 5h48q13 0 22 -10q10 -9 10 -22v-64l-48 -96h16q13 0 22 -10q10 -9 10 -22v-192q0 -14 -10 -23q-9 -9 -22 -9h-32q-14 0 -23 9t-9 23v144h-48v-144q0 -14 -10 -23q-9 -9 -22 -9h-32z" />
    <glyph glyph-name="l" unicode="l" 
d="M192 32q6 0 11 4q5 5 5 12v192q0 6 -5 11t-11 5h-32v-176q0 -7 -5 -12q-5 -4 -11 -4h-64q-7 0 -12 4q-4 5 -4 12v336q0 6 -5 11t-11 5h-32v-384q0 -7 4 -12q5 -4 12 -4h160zM32 0q-14 0 -23 9t-9 23v400q0 6 4 11q5 5 12 5h48q13 0 22 -10q10 -9 10 -22v-336h48v176
q0 6 4 11q5 5 12 5h48q13 0 22 -10q10 -9 10 -22v-208q0 -14 -10 -23q-9 -9 -22 -9h-176z" />
    <glyph glyph-name="m" unicode="m" 
d="M192 32q6 0 11 4q5 5 5 12v384h-56l-40 -80l-40 80h-56v-384q0 -7 4 -12q5 -4 12 -4h16q6 0 11 4q5 5 5 12v304l48 -96l48 96v-304q0 -7 4 -12q5 -4 12 -4h16zM32 0q-14 0 -23 9t-9 23v400q0 6 4 11q5 5 12 5h80l24 -48l24 48h64q13 0 22 -10q10 -9 10 -22v-384
q0 -14 -10 -23q-9 -9 -22 -9h-32q-14 0 -23 9t-9 23v224l-16 -32h-16l-16 32v-224q0 -14 -10 -23q-9 -9 -22 -9h-32z" />
    <glyph glyph-name="n" unicode="n" 
d="M192 32q6 0 11 4q5 5 5 12v368q0 6 -5 11t-11 5h-32v-176l-88 176h-56v-384q0 -7 4 -12q5 -4 12 -4h16q6 0 11 4q5 5 5 12v304l96 -192v-112q0 -7 4 -12q5 -4 12 -4h16zM32 0q-14 0 -23 9t-9 23v400q0 6 4 11q5 5 12 5h80l48 -96v80q0 6 4 11q5 5 12 5h48q13 0 22 -10
q10 -9 10 -22v-384q0 -14 -10 -23q-9 -9 -22 -9h-32q-14 0 -23 9t-9 23v128l-48 96v-224q0 -14 -10 -23q-9 -9 -22 -9h-32z" />
    <glyph glyph-name="o" unicode="o" 
d="M144 80v288h-48v-288h48zM80 64q-7 0 -12 4q-4 5 -4 12v304q0 6 4 11q5 5 12 5h48q13 0 22 -10q10 -9 10 -22v-288q0 -7 -5 -12q-5 -4 -11 -4h-64zM192 32q6 0 11 4q5 5 5 12v368q0 6 -5 11t-11 5h-176v-384q0 -7 4 -12q5 -4 12 -4h160zM32 0q-14 0 -23 9t-9 23v400
q0 6 4 11q5 5 12 5h192q13 0 22 -10q10 -9 10 -22v-384q0 -14 -10 -23q-9 -9 -22 -9h-176z" />
    <glyph glyph-name="p" unicode="p" 
d="M144 80v288h-48v-288h48zM64 64v320q0 6 4 11q5 5 12 5h48q13 0 22 -10q10 -9 10 -22v-288q0 -7 -5 -12q-5 -4 -11 -4h-80zM48 -144q6 0 11 5t5 11v160h128q6 0 11 4q5 5 5 12v368q0 6 -5 11t-11 5h-176v-560q0 -6 4 -11q5 -5 12 -5h16zM32 -176q-14 0 -23 10q-9 9 -9 22
v576q0 6 4 11q5 5 12 5h192q13 0 22 -10q10 -9 10 -22v-384q0 -14 -10 -23q-9 -9 -22 -9h-112v-144q0 -13 -10 -22q-9 -10 -22 -10h-32z" />
    <glyph glyph-name="q" unicode="q" 
d="M144 80v288h-48v-288h48zM80 64q-7 0 -12 4q-4 5 -4 12v304q0 6 4 11q5 5 12 5h48q13 0 22 -10q10 -9 10 -22v-288q0 -7 -5 -12q-5 -4 -11 -4h-64zM192 -32l-32 64h32q6 0 11 4q5 5 5 12v368q0 6 -5 11t-11 5h-176v-384q0 -7 4 -12q5 -4 12 -4h80l32 -64h48zM144 -64
l-32 64h-80q-14 0 -23 9t-9 23v400q0 6 4 11q5 5 12 5h192q13 0 22 -10q10 -9 10 -22v-384q0 -14 -10 -23q-9 -9 -22 -9l32 -64h-96z" />
    <glyph glyph-name="r" unicode="r" 
d="M144 272v96h-48v-96h48zM64 256v128q0 6 4 11q5 5 12 5h48q13 0 22 -10q10 -9 10 -22v-96q0 -7 -5 -12q-5 -4 -11 -4h-80zM208 32v48l-64 128l-16 16h64q6 0 11 4q5 5 5 12v176q0 6 -5 11t-11 5h-176v-384q0 -7 4 -12q5 -4 12 -4h16q6 0 11 4q5 5 5 12v176h16l80 -160
v-32h48zM32 0q-14 0 -23 9t-9 23v400q0 6 4 11q5 5 12 5h192q13 0 22 -10q10 -9 10 -22v-192q0 -14 -10 -23q-9 -9 -22 -9h-24l56 -112v-48q0 -14 -10 -23q-9 -9 -22 -9h-32q-14 0 -23 9t-9 23v32l-48 96v-128q0 -14 -10 -23q-9 -9 -22 -9h-32z" />
    <glyph glyph-name="s" unicode="s" 
d="M192 32q6 0 11 4q5 5 5 12v192q0 6 -5 11t-11 5h-112q-7 0 -12 4q-4 5 -4 12v112q0 6 4 11q5 5 12 5h48q13 0 22 -10q10 -9 10 -22q0 -7 4 -12q5 -4 12 -4h16q6 0 11 4q5 5 5 12v48q0 6 -5 11t-11 5h-176v-192q0 -7 4 -12q5 -4 12 -4h96q13 0 22 -10q10 -9 10 -22v-112
q0 -7 -5 -12q-5 -4 -11 -4h-64q-7 0 -12 4q-4 5 -4 12v16q0 6 -5 11t-11 5h-32v-64q0 -7 4 -12q5 -4 12 -4h160zM32 0q-14 0 -23 9t-9 23v80q0 6 4 11q5 5 12 5h48q13 0 22 -10q10 -9 10 -22v-16h48v112h-112q-14 0 -23 9t-9 23v208q0 6 4 11q5 5 12 5h192q13 0 22 -10
q10 -9 10 -22v-64q0 -14 -10 -23q-9 -9 -22 -9h-32q-14 0 -23 9t-9 23v16h-48v-96h112q13 0 22 -10q10 -9 10 -22v-208q0 -14 -10 -23q-9 -9 -22 -9h-176z" />
    <glyph glyph-name="t" unicode="t" 
d="M192 32q6 0 11 4q5 5 5 12v192q0 6 -5 11t-11 5h-32v-176q0 -7 -5 -12q-5 -4 -11 -4h-64q-7 0 -12 4q-4 5 -4 12v320h128q6 0 11 4q5 5 5 12q0 6 -5 11t-11 5h-128v128q0 6 -5 11t-11 5h-32v-528q0 -7 4 -12q5 -4 12 -4h160zM32 0q-14 0 -23 9t-9 23v544q0 6 4 11
q5 5 12 5h48q13 0 22 -10q10 -9 10 -22v-112h112q13 0 22 -10q10 -9 10 -22v-16q0 -14 -10 -23q-9 -9 -22 -9h-112v-288h48v176q0 6 4 11q5 5 12 5h48q13 0 22 -10q10 -9 10 -22v-208q0 -14 -10 -23q-9 -9 -22 -9h-176z" />
    <glyph glyph-name="u" unicode="u" 
d="M192 32q6 0 11 4q5 5 5 12v368q0 6 -5 11t-11 5h-32v-352q0 -7 -5 -12q-5 -4 -11 -4h-64q-7 0 -12 4q-4 5 -4 12v336q0 6 -5 11t-11 5h-32v-384q0 -7 4 -12q5 -4 12 -4h160zM32 0q-14 0 -23 9t-9 23v400q0 6 4 11q5 5 12 5h48q13 0 22 -10q10 -9 10 -22v-336h48v352
q0 6 4 11q5 5 12 5h48q13 0 22 -10q10 -9 10 -22v-384q0 -14 -10 -23q-9 -9 -22 -9h-176z" />
    <glyph glyph-name="v" unicode="v" 
d="M112 32l96 192v192q0 6 -5 11t-11 5h-32v-192l-48 -96l-48 96v176q0 6 -5 11t-11 5h-32v-208l96 -192v0zM112 0l-112 224v208q0 6 4 11q5 5 12 5h48q13 0 22 -10q10 -9 10 -22v-176l24 -48l24 48v192q0 6 4 11q5 5 12 5h48q13 0 22 -10q10 -9 10 -22v-192l-112 -224h-16z
" />
    <glyph glyph-name="w" unicode="w" 
d="M192 32q6 0 11 4q5 5 5 12v368q0 6 -5 11t-11 5h-32v-336l-48 96l-48 -96v320q0 6 -5 11t-11 5h-32v-384q0 -7 4 -12q5 -4 12 -4h48l32 64l32 -64h48zM32 0q-14 0 -23 9t-9 23v400q0 6 4 11q5 5 12 5h48q13 0 22 -10q10 -9 10 -22v-224l16 32h16l16 -32v240q0 6 4 11
q5 5 12 5h48q13 0 22 -10q10 -9 10 -22v-384q0 -14 -10 -23q-9 -9 -22 -9h-64l-24 48l-24 -48h-64z" />
    <glyph glyph-name="x" unicode="x" 
d="M208 32v96l-48 96l48 96v96q0 6 -5 11t-11 5h-32v-96l-48 -96l-48 96v80q0 6 -5 11t-11 5h-32v-112l48 -96l-48 -96v-80q0 -7 4 -12q5 -4 12 -4h16q6 0 11 4q5 5 5 12v64l48 96l48 -96v-80h48zM32 0q-14 0 -23 9t-9 23v96l48 96l-48 96v112q0 6 4 11q5 5 12 5h48
q13 0 22 -10q10 -9 10 -22v-80l24 -48l24 48v96q0 6 4 11q5 5 12 5h48q13 0 22 -10q10 -9 10 -22v-96l-48 -96l48 -96v-96q0 -14 -10 -23q-9 -9 -22 -9h-32q-14 0 -23 9t-9 23v80l-24 48l-24 -48v-80q0 -14 -10 -23q-9 -9 -22 -9h-32z" />
    <glyph glyph-name="y" unicode="y" 
d="M192 -144q6 0 11 5t5 11v544q0 6 -5 11t-11 5h-32v-352q0 -7 -5 -12q-5 -4 -11 -4h-64q-7 0 -12 4q-4 5 -4 12v336q0 6 -5 11t-11 5h-32v-384q0 -7 4 -12q5 -4 12 -4h128v-128q0 -6 -5 -11t-11 -5h-64q-7 0 -12 5q-4 5 -4 11v16q0 7 -5 12q-5 4 -11 4h-32v-64q0 -6 4 -11
q5 -5 12 -5h160zM32 -176q-14 0 -23 10q-9 9 -9 22v80q0 7 4 12q5 4 12 4h48q13 0 22 -9q10 -9 10 -23v-16h48v96h-112q-14 0 -23 9t-9 23v400q0 6 4 11q5 5 12 5h48q13 0 22 -10q10 -9 10 -22v-336h48v352q0 6 4 11q5 5 12 5h48q13 0 22 -10q10 -9 10 -22v-560
q0 -13 -10 -22q-9 -10 -22 -10h-176z" />
    <glyph glyph-name="z" unicode="z" 
d="M192 32q6 0 11 4q5 5 5 12v48q0 6 -5 11t-11 5h-32v-32q0 -7 -5 -12q-5 -4 -11 -4h-80l144 288v64q0 6 -5 11t-11 5h-176v-64q0 -7 4 -12q5 -4 12 -4h16q6 0 11 4q5 5 5 12v16q0 6 4 11q5 5 12 5h80v-32l-144 -288v-32q0 -7 4 -12q5 -4 12 -4h160zM32 0q-14 0 -23 9
t-9 23v48l144 288h-48v-16q0 -14 -10 -23q-9 -9 -22 -9h-32q-14 0 -23 9t-9 23v80q0 6 4 11q5 5 12 5h192q13 0 22 -10q10 -9 10 -22v-64l-136 -272h40v32q0 6 4 11q5 5 12 5h48q13 0 22 -10q10 -9 10 -22v-64q0 -14 -10 -23q-9 -9 -22 -9h-176z" />
  </font>
</defs>
</svg>
